<!-- icon666.com - MILLIONS OF FREE VECTOR ICONS --><svg id="Image" viewBox="0 0 64 64" xmlns="http://www.w3.org/2000/svg"><g><path d="m41.158 49.131-1.676 4.11c-2.371 1.151-3.448 3.771-2.55 6.267l-.493 1.212-1.767-.665 4.374-10.742c.502-1.227-1.357-1.977-1.852-.754l-1.352 3.32-3.381-1.766c-1.173-.612-2.099 1.16-.926 1.772l3.55 1.854-.94 2.309c-2.808-1.235-6.693-3.069-7.468-3.784-.975-.899-2.327.573-1.357 1.469 1.162 1.073 5.891 3.213 8.07 4.168l-.957 2.35c-.211.514.043 1.112.573 1.313l3.64 1.37c.508.19 1.074-.057 1.279-.56l.772-1.899c3.099-.54 4.573-4.144 2.725-6.701l1.586-3.891c.502-1.22-1.349-1.978-1.85-.752zm-2.479 9.294c-.264-1.259.247-2.485 1.299-3.19.641 1.241.025 2.75-1.299 3.19z"></path><path d="m58.149 18.715.799-2.398c.217-.645-.265-1.317-.948-1.317h-7c-.197 0-.391.059-.555.168l-2.748 1.832h-1.697v-1c0-.552-.447-1-1-1h-2v-4h4.184c.414 1.161 1.514 2 2.816 2h6c3.97 0 3.966-6 0-6h-6c-1.302 0-2.402.839-2.816 2h-9.184c-.553 0-1 .448-1 1v5h-2c-.553 0-1 .448-1 1v10c0 .552.447 1 1 1h4v5c0 .417.259.79.648.937l3.396 1.274-1.249 3.069c-1.431.57-2.496 1.171-3.35 1.664-.538.31-1.002.578-1.414.748-1.698.702-3.066.811-5.139.976-1.611.128-3.576.285-6.371.757l-.293-1.425h.772c.553 0 1-.448 1-1v-9c0-4.473-3.092-9-9-9-5.243 0-13 5.085-13 16v25c0 1.323 2 1.324 2 0v-25c0-9.55 6.563-14 11-14 4.81 0 7 3.628 7 7v8h-9v-8c0-1.323-2-1.324-2 0v9c0 .552.447 1 1 1h8.185l.574 2.778c.108.522.611.879 1.159.782 3.217-.587 5.389-.761 7.134-.9 2.18-.173 3.755-.299 5.743-1.121.533-.221 1.051-.519 1.649-.864.391-.226.814-.465 1.275-.707-.151.652.393 1.313 1.105 1.216.014-.002 1.351-.184 2.759-.184 1.417 0 1.417.136 1.417.5 0 .909-1.838 3.529-2.846 3.797-1.19.315-2.982-.373-3.802-.373-.932.001-13.092 3.076-18.352 3.076-1.484 0-2.32-1.829-2.71-5.931-.124-1.316-2.117-1.13-1.99.188.22 2.317.734 7.743 4.7 7.743 5.315 0 17.373-2.949 18.351-3.075.492.011 2.603.759 4.317.305 1.912-.507 4.332-3.99 4.332-5.73 0-.942-.328-1.529-.796-1.894l1.721-4.229c.029-.105.445-.894-.574-1.313-.674-.253-7.797-2.923-7.352-2.756v-.308h13c.553 0 1-.448 1-1v-3h3c.683 0 1.165-.671.948-1.316l-.799-2.398c1.134-1.32 1.135-3.25.001-4.571zm-14.913 20.33 1.681-4.132 1.769.663-1.4 3.44c-.597-.035-1.442-.009-2.05.029zm6.764-30.045h6c.552 0 1 .449 1 1s-.448 1-1 1h-6c-1.323 0-1.323-2 0-2zm-11 2h2v4h-2zm-3 14v-8h8v8h-3v-3c0-1.323-2-1.324-2 0v3zm17 4h-12v-2h4c.553 0 1-.448 1-1v-1h1.697l2.748 1.832c.164.109.358.168.555.168h2zm3.398-6.799c-.343.259-.483.708-.347 1.116l.561 1.683h-5.31l-2.748-1.832c-.163-.109-.357-.168-.554-.168h-2v-4h2c.197 0 .391-.059.555-.168l2.748-1.832h5.31l-.561 1.684c-.137.408.004.857.347 1.116.797.599.804 1.796-.001 2.401z"></path><path d="m13.684 6.949 3.841 1.28c-.333 1.332-.525 2.908-.525 4.771 0 4.71 3.29 8 8 8 4.824 0 7.272-6.573 7.837-8.319.626-.525 1.163-1.812 1.163-4.681 0-4.547-4.122-7-8-7-1.573 0-5.798.48-7.85 5.33l-3.834-1.278c-1.253-.421-1.888 1.477-.632 1.897zm12.316-3.949c2.981 0 6 1.717 6 5 0 1.628-.183 2.451-.32 2.839l-11.643-3.88c1.459-3.328 4.141-3.959 5.963-3.959zm-6.581 5.86 11.324 3.775c-.852 2.362-2.891 6.365-5.743 6.365-3.589 0-6-2.411-6-6 0-1.625.153-2.992.419-4.14z"></path><path d="m22 52v10c0 1.323 2 1.324 2 0v-10c0-1.323-2-1.324-2 0z"></path></g></svg>