<!-- icon666.com - MILLIONS OF FREE VECTOR ICONS --><svg version="1.1" id="Capa_1" xmlns="http://www.w3.org/2000/svg" xmlns:xlink="http://www.w3.org/1999/xlink" x="0px" y="0px" viewBox="0 0 467.08 467.08" style="enable-background:new 0 0 467.08 467.08;" xml:space="preserve"><g><path style="fill:#FF0000;" d="M98.003,364.53c6.31,0,11.43,5.12,11.43,11.43c0,6.3-5.12,11.43-11.43,11.43 c-6.3,0-11.43-5.13-11.43-11.43C86.573,369.65,91.703,364.53,98.003,364.53z"></path><linearGradient id="SVGID_1_" gradientUnits="userSpaceOnUse" x1="233.5426" y1="461.08" x2="233.5426" y2="431.41"><stop offset="0" style="stop-color:#00A837"></stop><stop offset="0.1741" style="stop-color:#009037"></stop><stop offset="0.4823" style="stop-color:#006A37"></stop><stop offset="0.7305" style="stop-color:#005337"></stop><stop offset="0.8857" style="stop-color:#004A37"></stop></linearGradient><path style="fill:url(#SVGID_1_);" d="M285.443,431.63v24.98c-15.98,2.92-33.86,4.47-51.9,4.47c-18.05,0-35.93-1.55-51.9-4.47 v-24.98l0.03-0.22c17.2,2.14,34.53,3.22,51.86,3.22s34.67-1.08,51.88-3.22L285.443,431.63z"></path><path style="fill:#FF0000;" d="M355.213,381.25c0.1,0.61,0.17,1.23,0.17,1.87c0,6.3-5.13,11.43-11.44,11.43 c-6.3,0-11.43-5.13-11.43-11.43c0-0.12,0.01-0.24,0.02-0.36C339.903,382.4,347.473,381.9,355.213,381.25z"></path><path style="fill:#FF0000;" d="M343.943,371.69c3.36,0,6.37,1.46,8.47,3.77c-6.08,0.49-12.04,0.88-17.88,1.18 C336.593,373.65,340.043,371.69,343.943,371.69z"></path><path style="fill:#FF0000;" d="M310.793,293.65c4.09,0,7.68,2.17,9.7,5.41c-6.74,0.49-13.36,0.75-19.85,0.8 C302.543,296.18,306.373,293.65,310.793,293.65z"></path><path style="fill:#FF0000;" d="M322.223,304.95c0,0.05,0,0.09,0,0.14c0,6.3-5.12,11.43-11.43,11.43c-6.03,0-10.98-4.71-11.39-10.64 C306.843,305.85,314.463,305.55,322.223,304.95z"></path><path style="fill:#FF0000;" d="M247.893,247.96c6.31,0,11.44,5.13,11.44,11.43c0,6.31-5.13,11.44-11.44,11.44 c-6.3,0-11.43-5.13-11.43-11.44C236.463,253.09,241.593,247.96,247.893,247.96z"></path><path style="fill:#FF0000;" d="M187.253,327.3c6.31,0,11.44,5.12,11.44,11.43c0,6.3-5.13,11.43-11.44,11.43 c-6.3,0-11.43-5.13-11.43-11.43C175.823,332.42,180.953,327.3,187.253,327.3z"></path><path style="fill:#FF0000;" d="M161.873,194.21c5.76,0,10.52,4.28,11.31,9.82c-7.17-2.13-13.66-4.32-19.42-6.43 C155.833,195.51,158.703,194.21,161.873,194.21z"></path><path style="fill:#FF0000;" d="M172.413,210.07c-1.74,4.11-5.81,7.01-10.54,7.01c-6.3,0-11.43-5.13-11.43-11.44 c0-0.93,0.12-1.84,0.34-2.71C157.103,205.26,164.343,207.7,172.413,210.07z"></path><path style="fill:#FF0000;" d="M289.313,161.02c6.31,0,11.44,5.12,11.44,11.43c0,6.3-5.13,11.43-11.44,11.43 c-6.3,0-11.43-5.13-11.43-11.43C277.883,166.14,283.013,161.02,289.313,161.02z"></path><path style="fill:#FF0000;" d="M192.573,117.06c-1.55,0.78-3.28,1.23-5.13,1.23c-5.95,0-10.85-4.58-11.38-10.41 C180.743,110.78,186.243,113.91,192.573,117.06z"></path><path style="fill:#FF0000;" d="M198.883,106.86c0,2.13-0.6,4.11-1.62,5.82c-7.89-3.84-14.54-7.69-19.93-11.13 c1.91-3.64,5.73-6.13,10.11-6.13C193.753,95.42,198.883,100.55,198.883,106.86z"></path><path style="fill:#FF0000;" d="M253.243,56.36c6.3,0,11.43,5.13,11.43,11.43s-5.13,11.43-11.43,11.43 c-6.31,0-11.44-5.13-11.44-11.43S246.933,56.36,253.243,56.36z"></path><g><linearGradient id="SVGID_2_" gradientUnits="userSpaceOnUse" x1="273.9326" y1="356.0538" x2="403.0926" y2="356.0538"><stop offset="0" style="stop-color:#00A837"></stop><stop offset="0.1876" style="stop-color:#009C37"></stop><stop offset="0.6165" style="stop-color:#008537"></stop><stop offset="0.8857" style="stop-color:#007C37"></stop></linearGradient><path style="fill:url(#SVGID_2_);" d="M295.293,369.53c-6.58,2.37-13.72,4.81-21.36,7.27c16.58,0.83,34.5,0.96,53.72,0.17 c2.5-6.59,8.85-11.28,16.29-11.28c6.64,0,12.42,3.72,15.36,9.19c13.99-1.26,28.6-3.04,43.79-5.38l-29.59-34.89 C365.723,339.03,337.783,354.21,295.293,369.53z"></path><linearGradient id="SVGID_3_" gradientUnits="userSpaceOnUse" x1="103.7126" y1="401.755" x2="417.2226" y2="401.755"><stop offset="0" style="stop-color:#00A837"></stop><stop offset="0.1876" style="stop-color:#009C37"></stop><stop offset="0.6165" style="stop-color:#008537"></stop><stop offset="0.8857" style="stop-color:#007C37"></stop></linearGradient><path style="fill:url(#SVGID_3_);" d="M407.643,374.88c-16.14,2.56-31.62,4.48-46.45,5.85c0.11,0.78,0.19,1.58,0.19,2.39 c0,9.61-7.82,17.43-17.44,17.43c-9.61,0-17.43-7.82-17.43-17.43c0-0.03,0.01-0.06,0.01-0.09c-8.25,0.32-16.26,0.48-24.03,0.48 c-15.92,0-30.82-0.64-44.71-1.76c-41,12.03-93.85,23.27-154.07,26.19c41.85,13.62,85.85,20.69,129.82,20.69 c63.32,0,126.74-14.67,183.69-42.46L407.643,374.88z"></path><linearGradient id="SVGID_4_" gradientUnits="userSpaceOnUse" x1="49.8626" y1="368.06" x2="241.2526" y2="368.06"><stop offset="0" style="stop-color:#00A837"></stop><stop offset="0.1876" style="stop-color:#009C37"></stop><stop offset="0.6165" style="stop-color:#008537"></stop><stop offset="0.8857" style="stop-color:#007C37"></stop></linearGradient><path style="fill:url(#SVGID_4_);" d="M170.183,366.44c-43.68-12.47-68.42-27.79-75.78-32.81l-44.54,52.54 c12.43,6.08,25.18,11.52,38.17,16.32c58.88-1.38,111.3-11.08,153.22-22.33C212.623,376.94,188.893,371.78,170.183,366.44z M98.003,393.39c-9.61,0-17.43-7.82-17.43-17.43c0-9.61,7.82-17.43,17.43-17.43s17.43,7.82,17.43,17.43 C115.433,385.57,107.613,393.39,98.003,393.39z"></path><linearGradient id="SVGID_5_" gradientUnits="userSpaceOnUse" x1="84.2426" y1="334.68" x2="393.5326" y2="334.68"><stop offset="0" style="stop-color:#00A837"></stop><stop offset="0.1876" style="stop-color:#009C37"></stop><stop offset="0.6165" style="stop-color:#008537"></stop><stop offset="0.8857" style="stop-color:#007C37"></stop></linearGradient><path style="fill:url(#SVGID_5_);" d="M328.223,305.09c0,9.61-7.82,17.43-17.43,17.43c-9.36,0-17-7.42-17.39-16.69 c-22.09-0.32-42.59-2.91-60.9-6.62c-31.91,6.47-70.97,11.38-116.11,11.38c-10.4,0-21.12-0.27-32.15-0.83 c6.13,2.74,12.34,5.34,18.6,7.74c1.35,0.52,2.14,1.93,1.88,3.35c-0.11,0.58-0.39,1.1-0.77,1.51l-5.64,6.65 c7.65,5.08,32.16,19.9,73.9,31.77c21.59,6.14,49.97,12.02,84.96,14.9c13.37-3.95,25.46-7.97,36.08-11.8 c40.55-14.61,67.58-29.03,76.31-33.93l-6.43-7.58c-0.39-0.41-0.67-0.93-0.77-1.52c-0.27-1.42,0.52-2.83,1.87-3.35 c9.94-3.81,19.78-8.07,29.3-12.7l-9.42-11.12c-19.21,5.6-37.94,9.01-55.92,10.75C328.203,304.65,328.223,304.87,328.223,305.09z M187.253,356.16c-9.61,0-17.43-7.82-17.43-17.43s7.82-17.43,17.43-17.43c9.62,0,17.44,7.82,17.44,17.43 S196.873,356.16,187.253,356.16z"></path><linearGradient id="SVGID_6_" gradientUnits="userSpaceOnUse" x1="247.7926" y1="278.35" x2="379.8426" y2="278.35"><stop offset="0" style="stop-color:#00A837"></stop><stop offset="0.1876" style="stop-color:#009C37"></stop><stop offset="0.6165" style="stop-color:#008537"></stop><stop offset="0.8857" style="stop-color:#007C37"></stop></linearGradient><path style="fill:url(#SVGID_6_);" d="M279.573,287.33c-9.37,2.87-19.99,5.79-31.78,8.55c14.4,2.28,29.94,3.76,46.38,3.97 c2.23-7.06,8.83-12.2,16.62-12.2c7.29,0,13.54,4.5,16.14,10.87c17.03-1.61,34.74-4.75,52.91-9.87l-26.95-31.8 C345.573,261.14,320.653,274.76,279.573,287.33z"></path><linearGradient id="SVGID_7_" gradientUnits="userSpaceOnUse" x1="74.9026" y1="278.9652" x2="217.7826" y2="278.9652"><stop offset="0" style="stop-color:#00A837"></stop><stop offset="0.1876" style="stop-color:#009C37"></stop><stop offset="0.6165" style="stop-color:#008537"></stop><stop offset="0.8857" style="stop-color:#007C37"></stop></linearGradient><path style="fill:url(#SVGID_7_);" d="M217.783,295.9c-8.38-2.08-16.2-4.35-23.38-6.67c-40.98-13.27-69.28-30.68-77.25-35.88 l-42.25,49.85C130.743,306.89,178.933,302.75,217.783,295.9z"></path><linearGradient id="SVGID_8_" gradientUnits="userSpaceOnUse" x1="121.0626" y1="254.21" x2="374.3626" y2="254.21"><stop offset="0" style="stop-color:#00A837"></stop><stop offset="0.1876" style="stop-color:#009C37"></stop><stop offset="0.6165" style="stop-color:#008537"></stop><stop offset="0.8857" style="stop-color:#007C37"></stop></linearGradient><path style="fill:url(#SVGID_8_);" d="M160.793,245.42c-11.32,0-23.23-0.45-35.71-1.42l-4.02,4.74 c8.42,5.44,35.87,22.08,75.4,34.85c10.65,3.44,22.75,6.76,36.03,9.5c17.33-3.56,32.51-7.57,45.32-11.5 c38.59-11.81,63.03-24.77,71.13-29.4l-7.93-9.36c-0.64-0.75-0.87-1.76-0.61-2.71c0.25-0.95,0.96-1.72,1.88-2.05 c10.9-3.9,21.67-8.43,32.08-13.47l-7.85-9.27c-30.06,6.8-58.25,9.57-83.78,9.81C254.803,235.57,214.253,245.42,160.793,245.42z M247.893,276.83c-9.61,0-17.43-7.82-17.43-17.44c0-9.61,7.82-17.43,17.43-17.43c9.62,0,17.44,7.82,17.44,17.43 C265.333,269.01,257.513,276.83,247.893,276.83z"></path><linearGradient id="SVGID_9_" gradientUnits="userSpaceOnUse" x1="298.4826" y1="204.34" x2="362.1226" y2="204.34"><stop offset="0" style="stop-color:#00A837"></stop><stop offset="0.1876" style="stop-color:#009C37"></stop><stop offset="0.6165" style="stop-color:#008537"></stop><stop offset="0.8857" style="stop-color:#007C37"></stop></linearGradient><path style="fill:url(#SVGID_9_);" d="M298.483,218.66c19.9-1,41.23-3.62,63.64-8.5l-17.07-20.14 C339.553,194.89,324.483,206.95,298.483,218.66z"></path><linearGradient id="SVGID_10_" gradientUnits="userSpaceOnUse" x1="92.7126" y1="214.8536" x2="264.7326" y2="214.8536"><stop offset="0" style="stop-color:#00A837"></stop><stop offset="0.1876" style="stop-color:#009C37"></stop><stop offset="0.6165" style="stop-color:#008537"></stop><stop offset="0.8857" style="stop-color:#007C37"></stop></linearGradient><path style="fill:url(#SVGID_10_);" d="M264.733,224.9c-29.84-1.09-55.39-5.44-75.2-10.24c-3.94-0.95-7.71-1.93-11.34-2.94 c-2.48,6.62-8.85,11.36-16.32,11.36c-9.61,0-17.43-7.82-17.43-17.44c0-1.68,0.25-3.31,0.7-4.86 c-11.77-4.61-19.72-8.58-23.34-10.49l-29.09,34.31c10.29,4.98,20.94,9.46,31.7,13.33C184.973,242.79,231.603,235.03,264.733,224.9 z"></path><linearGradient id="SVGID_11_" gradientUnits="userSpaceOnUse" x1="257.1426" y1="117.3929" x2="339.9726" y2="117.3929"><stop offset="0" style="stop-color:#00A837"></stop><stop offset="0.1876" style="stop-color:#009C37"></stop><stop offset="0.6165" style="stop-color:#008537"></stop><stop offset="0.8857" style="stop-color:#007C37"></stop></linearGradient><path style="fill:url(#SVGID_11_);" d="M257.143,131.83c23.17,4.1,50.94,5.61,82.83,1.38l-28.96-34.16 c-5.1,5.18-18.51,17.13-42.81,28.15C264.563,128.86,260.873,130.4,257.143,131.83z"></path><linearGradient id="SVGID_12_" gradientUnits="userSpaceOnUse" x1="107.0926" y1="177.4595" x2="359.9826" y2="177.4595"><stop offset="0" style="stop-color:#00A837"></stop><stop offset="0.1876" style="stop-color:#009C37"></stop><stop offset="0.6165" style="stop-color:#008537"></stop><stop offset="0.8857" style="stop-color:#007C37"></stop></linearGradient><path style="fill:url(#SVGID_12_);" d="M136.813,170.59c0.25,0.95,0.02,1.96-0.61,2.71l-10.41,12.28 c3.94,2.02,11.44,5.64,22.04,9.77c3.17-4.32,8.28-7.14,14.04-7.14c9.61,0,17.43,7.82,17.43,17.43c0,0.06-0.01,0.11-0.01,0.16 c3.8,1.06,7.76,2.09,11.88,3.09c23.04,5.56,53.98,10.51,90.45,10.26c3.46-1.31,6.71-2.62,9.75-3.92 c28.22-12.03,44.43-25.06,49.79-29.8l-10.22-12.06c-0.37-0.4-0.63-0.92-0.73-1.49c-0.25-1.44,0.56-2.85,1.93-3.34 c9.44-3.41,18.78-7.34,27.84-11.72l-15.42-18.19c-14.94,2.16-29.03,3.11-42.2,3.11c-21.17,0-40-2.41-56.29-5.98 c-31.61,10.29-64.9,13.54-94.31,13.54c-13.27,0-25.73-0.67-36.91-1.64l-7.76,9.16c9.05,4.38,18.4,8.32,27.84,11.72 C135.853,168.87,136.553,169.64,136.813,170.59z M289.313,155.02c9.62,0,17.44,7.82,17.44,17.43c0,9.61-7.82,17.43-17.44,17.43 c-9.61,0-17.43-7.82-17.43-17.43C271.883,162.84,279.703,155.02,289.313,155.02z"></path><linearGradient id="SVGID_13_" gradientUnits="userSpaceOnUse" x1="119.6226" y1="119.4762" x2="234.5826" y2="119.4762"><stop offset="0" style="stop-color:#00A837"></stop><stop offset="0.1876" style="stop-color:#009C37"></stop><stop offset="0.6165" style="stop-color:#008537"></stop><stop offset="0.8857" style="stop-color:#007C37"></stop></linearGradient><path style="fill:url(#SVGID_13_);" d="M234.583,132.95c-11.11-3.01-20.81-6.48-29.02-9.93c-2.33-0.98-4.58-1.97-6.75-2.97 c-3.06,2.63-7.02,4.24-11.37,4.24c-9.61,0-17.43-7.82-17.43-17.43c0-0.94,0.1-1.85,0.24-2.74c-5.32-3.6-9.1-6.59-11.33-8.46 l-39.3,46.37C151.993,144.53,194.243,144.17,234.583,132.95z"></path><linearGradient id="SVGID_14_" gradientUnits="userSpaceOnUse" x1="162.8126" y1="68.59" x2="307.1126" y2="68.59"><stop offset="0" style="stop-color:#00A837"></stop><stop offset="0.1876" style="stop-color:#009C37"></stop><stop offset="0.6165" style="stop-color:#008537"></stop><stop offset="0.8857" style="stop-color:#007C37"></stop></linearGradient><path style="fill:url(#SVGID_14_);" d="M187.443,89.42c9.62,0,17.44,7.82,17.44,17.44c0,3.03-0.79,5.89-2.16,8.38 c1.76,0.79,3.58,1.58,5.44,2.37c10.22,4.27,22.81,8.58,37.61,11.93c6.76-2.26,13.43-4.84,19.95-7.8 c24.08-10.93,37.05-22.84,41.39-27.3l-73.58-86.8l-70.72,83.44c1.91,1.59,5.1,4.1,9.51,7.14 C175.333,92.98,180.973,89.42,187.443,89.42z M253.243,50.36c9.61,0,17.43,7.82,17.43,17.43s-7.82,17.43-17.43,17.43 c-9.62,0-17.44-7.82-17.44-17.43S243.623,50.36,253.243,50.36z"></path></g><path style="fill:#FFFFFF;" d="M424.283,385.22c0.59,0.71,0.83,1.64,0.65,2.55c-0.19,0.9-0.78,1.66-1.6,2.08 c-43.14,21.55-90.05,35.62-137.92,41.56c-17.21,2.14-34.55,3.22-51.88,3.22s-34.66-1.08-51.86-3.22 c-47.88-5.93-94.8-20.01-137.93-41.56c-0.82-0.42-1.41-1.18-1.59-2.09c-0.19-0.9,0.05-1.83,0.65-2.54l53.95-63.65 c-9.97-3.95-19.82-8.35-29.32-13.1c-0.82-0.41-1.41-1.18-1.6-2.08c-0.18-0.9,0.06-1.84,0.65-2.54l52.23-61.61 c-10.94-4.09-21.72-8.77-32.11-13.97c-0.83-0.41-1.42-1.18-1.6-2.08c-0.19-0.9,0.05-1.84,0.65-2.54l43.2-50.96 c-9.48-3.58-18.83-7.67-27.88-12.19c-0.82-0.41-1.41-1.18-1.6-2.08c-0.18-0.9,0.06-1.84,0.65-2.54L231.243,1.06 c0.57-0.68,1.41-1.06,2.29-1.06c0.89,0,1.72,0.38,2.29,1.06l131.22,154.82c0.6,0.7,0.84,1.64,0.65,2.54 c-0.18,0.9-0.77,1.67-1.59,2.08c-9.05,4.52-18.4,8.61-27.88,12.19l43.2,50.96c0.6,0.7,0.84,1.64,0.65,2.54 c-0.18,0.9-0.77,1.67-1.59,2.08c-10.4,5.2-21.18,9.88-32.12,13.96l52.23,61.62c0.59,0.7,0.83,1.64,0.65,2.54 c-0.19,0.9-0.77,1.67-1.6,2.08c-9.5,4.75-19.35,9.15-29.32,13.1L424.283,385.22z M417.223,386.17l-9.58-11.29 c-16.14,2.56-31.62,4.48-46.45,5.85c0.11,0.78,0.19,1.58,0.19,2.39c0,9.61-7.82,17.43-17.44,17.43c-9.61,0-17.43-7.82-17.43-17.43 c0-0.03,0.01-0.06,0.01-0.09c-8.25,0.32-16.26,0.48-24.03,0.48c-15.92,0-30.82-0.64-44.71-1.76c-41,12.03-93.85,23.27-154.07,26.19 c41.85,13.62,85.85,20.69,129.82,20.69C296.853,428.63,360.273,413.96,417.223,386.17z M403.093,369.5l-29.59-34.89 c-7.78,4.42-35.72,19.6-78.21,34.92c-6.58,2.37-13.72,4.81-21.36,7.27c16.58,0.83,34.5,0.96,53.72,0.17 c2.5-6.59,8.85-11.28,16.29-11.28c6.64,0,12.42,3.72,15.36,9.19C373.293,373.62,387.903,371.84,403.093,369.5z M393.533,304.8 l-9.42-11.12c-19.21,5.6-37.94,9.01-55.92,10.75c0.01,0.22,0.03,0.44,0.03,0.66c0,9.61-7.82,17.43-17.43,17.43 c-9.36,0-17-7.42-17.39-16.69c-22.09-0.32-42.59-2.91-60.9-6.62c-31.91,6.47-70.97,11.38-116.11,11.38 c-10.4,0-21.12-0.27-32.15-0.83c6.13,2.74,12.34,5.34,18.6,7.74c1.35,0.52,2.14,1.93,1.88,3.35c-0.11,0.58-0.39,1.1-0.77,1.51 l-5.64,6.65c7.65,5.08,32.16,19.9,73.9,31.77c21.59,6.14,49.97,12.02,84.96,14.9c13.37-3.95,25.46-7.97,36.08-11.8 c40.55-14.61,67.58-29.03,76.31-33.93l-6.43-7.58c-0.39-0.41-0.67-0.93-0.77-1.52c-0.27-1.42,0.52-2.83,1.87-3.35 C374.173,313.69,384.013,309.43,393.533,304.8z M379.843,288.65l-26.95-31.8c-7.32,4.29-32.24,17.91-73.32,30.48 c-9.37,2.87-19.99,5.79-31.78,8.55c14.4,2.28,29.94,3.76,46.38,3.97c2.23-7.06,8.83-12.2,16.62-12.2c7.29,0,13.54,4.5,16.14,10.87 C343.963,296.91,361.673,293.77,379.843,288.65z M374.363,224.6l-7.85-9.27c-30.06,6.8-58.25,9.57-83.78,9.81 c-27.93,10.43-68.48,20.28-121.94,20.28c-11.32,0-23.23-0.45-35.71-1.42l-4.02,4.74c8.42,5.44,35.87,22.08,75.4,34.85 c10.65,3.44,22.75,6.76,36.03,9.5c17.33-3.56,32.51-7.57,45.32-11.5c38.59-11.81,63.03-24.77,71.13-29.4l-7.93-9.36 c-0.64-0.75-0.87-1.76-0.61-2.71c0.25-0.95,0.96-1.72,1.88-2.05C353.183,234.17,363.953,229.64,374.363,224.6z M362.123,210.16 l-17.07-20.14c-5.5,4.87-20.57,16.93-46.57,28.64C318.383,217.66,339.713,215.04,362.123,210.16z M359.983,156.82l-15.42-18.19 c-14.94,2.16-29.03,3.11-42.2,3.11c-21.17,0-40-2.41-56.29-5.98c-31.61,10.29-64.9,13.54-94.31,13.54 c-13.27,0-25.73-0.67-36.91-1.64l-7.76,9.16c9.05,4.38,18.4,8.32,27.84,11.72c0.92,0.33,1.62,1.1,1.88,2.05 c0.25,0.95,0.02,1.96-0.61,2.71l-10.41,12.28c3.94,2.02,11.44,5.64,22.04,9.77c3.17-4.32,8.28-7.14,14.04-7.14 c9.61,0,17.43,7.82,17.43,17.43c0,0.06-0.01,0.11-0.01,0.16c3.8,1.06,7.76,2.09,11.88,3.09c23.04,5.56,53.98,10.51,90.45,10.26 c3.46-1.31,6.71-2.62,9.75-3.92c28.22-12.03,44.43-25.06,49.79-29.8l-10.22-12.06c-0.37-0.4-0.63-0.92-0.73-1.49 c-0.25-1.44,0.56-2.85,1.93-3.34C341.583,165.13,350.923,161.2,359.983,156.82z M355.383,383.12c0-0.64-0.07-1.26-0.17-1.87 c-7.74,0.65-15.31,1.15-22.68,1.51c-0.01,0.12-0.02,0.24-0.02,0.36c0,6.3,5.13,11.43,11.43,11.43 C350.253,394.55,355.383,389.42,355.383,383.12z M352.413,375.46c-2.1-2.31-5.11-3.77-8.47-3.77c-3.9,0-7.35,1.96-9.41,4.95 C340.373,376.34,346.333,375.95,352.413,375.46z M339.973,133.21l-28.96-34.16c-5.1,5.18-18.51,17.13-42.81,28.15 c-3.64,1.66-7.33,3.2-11.06,4.63C280.313,135.93,308.083,137.44,339.973,133.21z M322.223,305.09c0-0.05,0-0.09,0-0.14 c-7.76,0.6-15.38,0.9-22.82,0.93c0.41,5.93,5.36,10.64,11.39,10.64C317.103,316.52,322.223,311.39,322.223,305.09z M320.493,299.06 c-2.02-3.24-5.61-5.41-9.7-5.41c-4.42,0-8.25,2.53-10.15,6.21C307.133,299.81,313.753,299.55,320.493,299.06z M307.113,94.44 l-73.58-86.8l-70.72,83.44c1.91,1.59,5.1,4.1,9.51,7.14c3.01-5.24,8.65-8.8,15.12-8.8c9.62,0,17.44,7.82,17.44,17.44 c0,3.03-0.79,5.89-2.16,8.38c1.76,0.79,3.58,1.58,5.44,2.37c10.22,4.27,22.81,8.58,37.61,11.93c6.76-2.26,13.43-4.84,19.95-7.8 C289.803,110.81,302.773,98.9,307.113,94.44z M264.733,224.9c-29.84-1.09-55.39-5.44-75.2-10.24c-3.94-0.95-7.71-1.93-11.34-2.94 c-2.48,6.62-8.85,11.36-16.32,11.36c-9.61,0-17.43-7.82-17.43-17.44c0-1.68,0.25-3.31,0.7-4.86c-11.77-4.61-19.72-8.58-23.34-10.49 l-29.09,34.31c10.29,4.98,20.94,9.46,31.7,13.33C184.973,242.79,231.603,235.03,264.733,224.9z M234.583,132.95 c-11.11-3.01-20.81-6.48-29.02-9.93c-2.33-0.98-4.58-1.97-6.75-2.97c-3.06,2.63-7.02,4.24-11.37,4.24 c-9.61,0-17.43-7.82-17.43-17.43c0-0.94,0.1-1.85,0.24-2.74c-5.32-3.6-9.1-6.59-11.33-8.46l-39.3,46.37 C151.993,144.53,194.243,144.17,234.583,132.95z M241.253,380.16c-28.63-3.22-52.36-8.38-71.07-13.72 c-43.68-12.47-68.42-27.79-75.78-32.81l-44.54,52.54c12.43,6.08,25.18,11.52,38.17,16.32 C146.913,401.11,199.333,391.41,241.253,380.16z M197.263,112.68c1.02-1.71,1.62-3.69,1.62-5.82c0-6.31-5.13-11.44-11.44-11.44 c-4.38,0-8.2,2.49-10.11,6.13C182.723,104.99,189.373,108.84,197.263,112.68z M217.783,295.9c-8.38-2.08-16.2-4.35-23.38-6.67 c-40.98-13.27-69.28-30.68-77.25-35.88l-42.25,49.85C130.743,306.89,178.933,302.75,217.783,295.9z M187.443,118.29 c1.85,0,3.58-0.45,5.13-1.23c-6.33-3.15-11.83-6.28-16.51-9.18C176.593,113.71,181.493,118.29,187.443,118.29z M173.183,204.03 c-0.79-5.54-5.55-9.82-11.31-9.82c-3.17,0-6.04,1.3-8.11,3.39C159.523,199.71,166.013,201.9,173.183,204.03z M161.873,217.08 c4.73,0,8.8-2.9,10.54-7.01c-8.07-2.37-15.31-4.81-21.63-7.14c-0.22,0.87-0.34,1.78-0.34,2.71 C150.443,211.95,155.573,217.08,161.873,217.08z"></path><path style="fill:#FFFFFF;" d="M289.313,155.02c9.62,0,17.44,7.82,17.44,17.43s-7.82,17.43-17.44,17.43 c-9.61,0-17.43-7.82-17.43-17.43S279.703,155.02,289.313,155.02z M300.753,172.45c0-6.31-5.13-11.43-11.44-11.43 c-6.3,0-11.43,5.12-11.43,11.43c0,6.3,5.13,11.43,11.43,11.43C295.623,183.88,300.753,178.75,300.753,172.45z"></path><path style="fill:#FFFFFF;" d="M291.443,431.63v27.47c0,1.43-1.02,2.67-2.43,2.94c-16.95,3.3-36.13,5.04-55.47,5.04 s-38.52-1.74-55.47-5.04c-1.41-0.27-2.43-1.51-2.43-2.94v-27.47h6v24.98c15.97,2.92,33.85,4.47,51.9,4.47 c18.04,0,35.92-1.55,51.9-4.47v-24.98H291.443z"></path><path style="fill:#FFFFFF;" d="M253.243,50.36c9.61,0,17.43,7.82,17.43,17.43s-7.82,17.43-17.43,17.43 c-9.62,0-17.44-7.82-17.44-17.43S243.623,50.36,253.243,50.36z M264.673,67.79c0-6.3-5.13-11.43-11.43-11.43 c-6.31,0-11.44,5.13-11.44,11.43s5.13,11.43,11.44,11.43C259.543,79.22,264.673,74.09,264.673,67.79z"></path><path style="fill:#FFFFFF;" d="M247.893,241.96c9.62,0,17.44,7.82,17.44,17.43c0,9.62-7.82,17.44-17.44,17.44 c-9.61,0-17.43-7.82-17.43-17.44C230.463,249.78,238.283,241.96,247.893,241.96z M259.333,259.39c0-6.3-5.13-11.43-11.44-11.43 c-6.3,0-11.43,5.13-11.43,11.43c0,6.31,5.13,11.44,11.43,11.44C254.203,270.83,259.333,265.7,259.333,259.39z"></path><path style="fill:#FFFFFF;" d="M187.253,321.3c9.62,0,17.44,7.82,17.44,17.43c0,9.61-7.82,17.43-17.44,17.43 c-9.61,0-17.43-7.82-17.43-17.43C169.823,329.12,177.643,321.3,187.253,321.3z M198.693,338.73c0-6.31-5.13-11.43-11.44-11.43 c-6.3,0-11.43,5.12-11.43,11.43c0,6.3,5.13,11.43,11.43,11.43C193.563,350.16,198.693,345.03,198.693,338.73z"></path><path style="fill:#FFFFFF;" d="M98.003,358.53c9.61,0,17.43,7.82,17.43,17.43c0,9.61-7.82,17.43-17.43,17.43 s-17.43-7.82-17.43-17.43C80.573,366.35,88.393,358.53,98.003,358.53z M109.433,375.96c0-6.31-5.12-11.43-11.43-11.43 c-6.3,0-11.43,5.12-11.43,11.43c0,6.3,5.13,11.43,11.43,11.43C104.313,387.39,109.433,382.26,109.433,375.96z"></path></g></svg>