<!-- icon666.com - MILLIONS OF FREE VECTOR ICONS --><svg xmlns="http://www.w3.org/2000/svg" id="Layer_5" data-name="Layer 5" viewBox="0 0 64 64"><path d="M28,30a1,1,0,0,0-1,1v2a1,1,0,0,0,2,0V31A1,1,0,0,0,28,30Z"></path><path d="M36,30a1,1,0,0,0-1,1v2a1,1,0,0,0,2,0V31A1,1,0,0,0,36,30Z"></path><path d="M28,29.07a3.3966,3.3966,0,0,0,2.832-1.5156,1,1,0,1,0-1.6641-1.1094,1.4442,1.4442,0,0,1-2.3359,0,1,1,0,1,0-1.6641,1.1094A3.3966,3.3966,0,0,0,28,29.07Z"></path><path d="M36,29.07a3.3966,3.3966,0,0,0,2.832-1.5156,1,1,0,1,0-1.6641-1.1094,1.4442,1.4442,0,0,1-2.3359,0,1,1,0,1,0-1.6641,1.1094A3.3966,3.3966,0,0,0,36,29.07Z"></path><path d="M33,41H31a3.0033,3.0033,0,0,0-3,3v1a1,1,0,0,0,1,1h6a1,1,0,0,0,1-1V44A3.0033,3.0033,0,0,0,33,41Zm-3,3a1.001,1.001,0,0,1,1-1h2a1.001,1.001,0,0,1,1,1Z"></path><path d="M45.73,42.6A4.8005,4.8005,0,0,0,46,41a4.9209,4.9209,0,0,0-1-2.97V35h.5a3.5,3.5,0,0,0,0-7H45V24.82A3.0006,3.0006,0,0,0,47,22V20a3.008,3.008,0,0,0-2.02-2.83A15.0261,15.0261,0,0,0,30,3H28A15.0183,15.0183,0,0,0,13,18v5.69A5.8977,5.8977,0,0,0,12,27a6.0027,6.0027,0,0,0,3.65,5.52l.0027.001A3.4922,3.4922,0,0,0,18.5,34H19v4.03A4.9209,4.9209,0,0,0,18,41a4.8005,4.8005,0,0,0,.27,1.6A20.8065,20.8065,0,0,0,9,60a1.003,1.003,0,0,0,1,1H54a1.003,1.003,0,0,0,1-1A20.7934,20.7934,0,0,0,45.73,42.6Zm-3.76,2.11A2.58,2.58,0,0,1,42,45a3.0088,3.0088,0,0,1-3,3,2.9386,2.9386,0,0,1-1.65-.5.9922.9922,0,0,0-.9-.1,1.0124,1.0124,0,0,0-.62.67,3.9683,3.9683,0,0,1-7.66,0,1.0124,1.0124,0,0,0-.62-.67,1.0392,1.0392,0,0,0-.35-.07,1.0158,1.0158,0,0,0-.55.17A2.9386,2.9386,0,0,1,25,48a3.0088,3.0088,0,0,1-3-3c0-.1.02-.2.04-.39a.99.99,0,0,0-.5-1.01,2.9861,2.9861,0,0,1-1.13-1.1l-.03-.06a2.9289,2.9289,0,0,1,.37-3.4,1.0236,1.0236,0,0,0,.25-.66V25h1v9a4.0046,4.0046,0,0,0,4,4h3.1843a2.982,2.982,0,0,0,5.6314,0H38a4.0046,4.0046,0,0,0,4-4V25h1V38.38a1.0236,1.0236,0,0,0,.25.66A2.9644,2.9644,0,0,1,44,41a2.9191,2.9191,0,0,1-.37,1.42.01.01,0,0,0-.01.01.2115.2115,0,0,0-.03.07,2.9861,2.9861,0,0,1-1.13,1.1A1.134,1.134,0,0,0,41.97,44.71ZM40,25v9a2.002,2.002,0,0,1-2,2H34.8157a2.9821,2.9821,0,0,0-5.6315,0H26a2.002,2.002,0,0,1-2-2V25ZM33,37a1,1,0,1,1-1-1A1.0013,1.0013,0,0,1,33,37Zm12.5-7a1.5,1.5,0,0,1,0,3H45V30ZM45,22a1.003,1.003,0,0,1-1,1H20a1.003,1.003,0,0,1-1-1V20a1.003,1.003,0,0,1,1-1H44a1.003,1.003,0,0,1,1,1ZM14.83,24.56a3.9692,3.9692,0,0,1,2.38-1.48A2.9885,2.9885,0,0,0,19,24.82V27h-.5a3.5022,3.5022,0,0,0-3.4087,2.7311L15.09,29.73A3.9345,3.9345,0,0,1,14,27,3.9928,3.9928,0,0,1,14.83,24.56ZM18.5,32a1.5,1.5,0,0,1,0-3H19v3ZM35,59H29V52.18a5.7908,5.7908,0,0,0,2,.73,5.5989,5.5989,0,0,0,2,0,5.7908,5.7908,0,0,0,2-.73Z"></path></svg>