<!-- icon666.com - MILLIONS OF FREE VECTOR ICONS --><svg viewBox="0 0 128 128" xmlns="http://www.w3.org/2000/svg"><g id="Layer_2" data-name="Layer 2"><circle cx="64" cy="64" fill="#bc7c63" r="62.25"></circle><circle cx="64" cy="64" fill="#23a8fe" r="62.25"></circle><path d="m17.617 70.089-8.965-7.172-3.824.836-3.022-1.971c-.026.738-.056 1.474-.056 2.218a61.969 61.969 0 0 0 12.693 37.661l6.878-8.743 15.3-1.791.118-13.511-7.29-9.324z" fill="#8affc7"></path><path d="m114.387 38.029 8.556 5.959a62.259 62.259 0 0 0 -75.143-40.095l.74 3.305 29.76 3.866 18.6 12.006-12.332 5.648-20.8-2.292-6.359-6.358-10.489 4.132-13.67 13.671v18.038l9.219 9.22h11.763l13.829 13.829v17.642l10.253 10.253 13.114-13.112v-7.63l6.04-6.04v-12.041l9.558-9.558-2.106-11.867-13.049-8.437 12.494-5.491z" fill="#8affc7"></path><g fill="#231f20"><path d="m124.628 43.546a1.791 1.791 0 0 0 -.087-.259 63.961 63.961 0 0 0 -77.088-41.106c-.013 0-.026 0-.039 0a1.353 1.353 0 0 0 -.136.045 64.105 64.105 0 0 0 -47.222 59.58c-.025.732-.056 1.459-.056 2.194a63.66 63.66 0 0 0 12.9 38.484 1.729 1.729 0 0 0 .352.448 63.971 63.971 0 0 0 108.964-12.31 1.75 1.75 0 1 0 -3.182-1.457 60.469 60.469 0 0 1 -102.348 12.474l5.561-7.067 14.583-1.706a1.752 1.752 0 0 0 1.547-1.723l.117-13.512a1.757 1.757 0 0 0 -.371-1.093l-7.29-9.324a1.739 1.739 0 0 0 -1.642-.651l-11.079 1.681-8.367-6.694a1.749 1.749 0 0 0 -1.467-.343l-3.108.68-1.588-1.036a60.622 60.622 0 0 1 42.918-54.759l.333 1.489a1.752 1.752 0 0 0 1.483 1.353l29.374 3.815 15.581 10.06-8.989 4.117-19.71-2.172-5.924-5.924a1.751 1.751 0 0 0 -1.878-.391l-10.492 4.133a1.764 1.764 0 0 0 -.595.391l-13.67 13.671a1.75 1.75 0 0 0 -.513 1.237v18.038a1.748 1.748 0 0 0 .513 1.237l9.219 9.22a1.754 1.754 0 0 0 1.238.513h11.762a1.75 1.75 0 0 0 0-3.5h-11.038l-8.194-8.195v-16.584l12.9-12.9 9.085-3.579 5.547 5.547a1.75 1.75 0 0 0 1.046.5l20.8 2.293a1.765 1.765 0 0 0 .92-.149l12.33-5.648a1.75 1.75 0 0 0 .221-3.061l-18.597-12.009a1.747 1.747 0 0 0 -.724-.265l-28.55-3.708-.1-.44a60.418 60.418 0 0 1 69.3 34.05l-3.789-2.639c-.057-.039-.116-.075-.176-.108l-10.022-5.351a1.749 1.749 0 0 0 -1.528-.058l-12.496 5.491a1.751 1.751 0 0 0 -.246 3.072l12.409 8.023 1.813 10.219-8.912 8.912a1.753 1.753 0 0 0 -.512 1.238v11.316l-5.529 5.528a1.747 1.747 0 0 0 -.512 1.237v6.905l-11.364 11.364-8.5-8.5v-16.922a1.75 1.75 0 0 0 -3.5 0v17.642a1.749 1.749 0 0 0 .512 1.237l10.253 10.253a1.749 1.749 0 0 0 2.475 0l13.111-13.111a1.752 1.752 0 0 0 .513-1.238v-6.905l5.528-5.528a1.75 1.75 0 0 0 .513-1.237v-11.317l9.044-9.045a1.745 1.745 0 0 0 .485-1.542l-2.105-11.867a1.747 1.747 0 0 0 -.773-1.164l-10.32-6.673 8.741-3.841 9.181 4.9 7.983 5.561a60.585 60.585 0 0 1 1.245 33.633 1.75 1.75 0 0 0 3.4.849 64.042 64.042 0 0 0 -1.465-36.019zm-119.428 21.916 3.011-.662 8.313 6.652a1.747 1.747 0 0 0 1.356.363l10.825-1.643 6.284 8.036-.1 11.357-13.771 1.615a1.746 1.746 0 0 0 -1.172.656l-5.432 6.905a60.141 60.141 0 0 1 -10.989-33.749l.347.227a1.747 1.747 0 0 0 1.328.243z"></path><path d="m61.428 69.85a1.75 1.75 0 1 0 -2.475 2.474l1.913 1.913a1.75 1.75 0 0 0 2.475-2.474z"></path></g></g></svg>