<!-- icon666.com - MILLIONS OF FREE VECTOR ICONS --><svg id="Layer_3" enable-background="new 0 0 64 64" viewBox="0 0 64 64" xmlns="http://www.w3.org/2000/svg"><g><g><path d="m9 63v-4c0-3.515 2.418-6.569 5.841-7.374l11.159-2.626h12l11.159 2.626c3.423.805 5.841 3.859 5.841 7.374v4z" fill="#6db569"></path><path d="m55 59c0-3.516-2.418-6.569-5.841-7.374l-11.159-2.626h-12l-10.475 2.465c-.957 1.277-1.525 2.849-1.525 4.535 0 2.209 1.791 4 4 4h37z" fill="#8cc687"></path><path d="m38 46.837v2.163c0 3.314-2.686 6-6 6-3.314 0-6-2.686-6-6v-2.163" fill="#eeb8ab"></path><path d="m38 47.827c-1.854.751-3.876 1.173-6 1.173-1.327 0-2.608-.179-3.841-.484.614 2.661 2.993 4.647 5.841 4.647 1.076 0 2.083-.287 2.956-.782.658-.963 1.044-2.126 1.044-3.381z" fill="#ffe1d3"></path><path d="m12 25.014v-11.014c0-6.627 5.372-12 11.999-12h16.001c3.314 0 6 2.686 6 6 3.314 0 6 2.686 6 6v10.98" fill="#3f4042"></path><path d="m52 14c0-3.314-2.686-6-6-6 0-3.314-2.686-6-6-6h-16.001c-1.808 0-3.516.411-5.054 1.128-1.829 2.106-2.945 4.85-2.945 7.859 0 6.081 4.932 11.01 11.014 11.005l24.986-.021z" fill="#5a5b5d"></path><path d="m48 21v11c0 8.837-7.163 16-16 16-8.837 0-16-7.163-16-16v-11h14.676c3.777 0 7.13-2.417 8.324-6z" fill="#eeb8ab"></path><path d="m33 47.95c8.368-.519 15-7.451 15-15.95v-11l-9-6c-1.194 3.583-4.547 6-8.324 6h-12.676v11c0 8.499 6.632 15.431 15 15.95z" fill="#ffe1d3"></path><path d="m20.365 28.122c-.235.58-.365 1.214-.365 1.878 0 2.761 2.239 5 5 5s5-2.239 5-5c0-.664-.13-1.298-.365-1.878" fill="#ddd"></path><path d="m26 33.879c1.227 0 2.335-.459 3.205-1.192.498-.777.795-1.695.795-2.687 0-.664-.13-1.298-.365-1.878h-8.562c-.038.248-.073.498-.073.757 0 2.761 2.239 5 5 5z" fill="#fff"></path><path d="m16 59h2v4h-2z" fill="#52a04f"></path><path d="m46 59h2v4h-2z" fill="#52a04f"></path><path d="m16 24h-1c-2.761 0-5 2.239-5 5 0 2.761 2.239 5 5 5h1.124" fill="#eeb8ab"></path><path d="m48 24h1c2.761 0 5 2.239 5 5 0 2.761-2.239 5-5 5h-1.124" fill="#eeb8ab"></path><path d="m34.365 28.122c-.235.58-.365 1.214-.365 1.878 0 2.761 2.239 5 5 5s5-2.239 5-5c0-.664-.13-1.298-.365-1.878" fill="#ddd"></path><path d="m40 33.879c1.227 0 2.335-.459 3.205-1.192.498-.777.795-1.695.795-2.687 0-.664-.13-1.298-.365-1.878h-8.562c-.038.248-.073.498-.073.757 0 2.761 2.239 5 5 5z" fill="#fff"></path><path d="m37.007 28.838c-.005.053-.007.108-.007.162 0 1.105.895 2 2 2s2-.895 2-2c0-.055-.002-.109-.006-.162" fill="#3f4042"></path><path d="m23.007 28.838c-.005.053-.007.108-.007.162 0 1.105.895 2 2 2s2-.895 2-2c0-.055-.002-.109-.006-.162" fill="#3f4042"></path><g fill="#eeb8ab"><path d="m44 28-1.103.368c-1.256.419-2.572.632-3.897.632-1.325 0-2.641-.214-3.897-.632l-1.103-.368 1.051-3.154c.567-1.699 2.157-2.846 3.949-2.846 1.792 0 3.382 1.146 3.949 2.846z"></path><path d="m30 28-1.103.368c-1.256.419-2.572.632-3.897.632-1.325 0-2.641-.214-3.897-.632l-1.103-.368 1.051-3.154c.567-1.699 2.157-2.846 3.949-2.846 1.792 0 3.382 1.146 3.949 2.846z"></path></g></g><g><path d="m49.389 50.652-10.389-2.444v-.734c5.01-2.276 8.721-6.905 9.719-12.474h.281c3.309 0 6-2.691 6-6 0-1.771-.776-3.36-2-4.46v-10.54c0-3.542-2.645-6.478-6.062-6.938-.46-3.417-3.396-6.062-6.938-6.062h-16c-7.168 0-13 5.832-13 13v10.54c-1.224 1.1-2 2.689-2 4.46 0 3.309 2.691 6 6 6h.281c.998 5.569 4.709 10.198 9.719 12.474v.734l-10.389 2.445c-3.892.915-6.611 4.348-6.611 8.347v3c0 .552.448 1 1 1h46c.552 0 1-.448 1-1v-3c0-3.999-2.719-7.432-6.611-8.348zm-.389-17.652h-.051c.02-.333.051-.662.051-1v-7c2.206 0 4 1.794 4 4s-1.794 4-4 4zm-36-19c0-6.065 4.935-11 11-11h16c2.757 0 5 2.243 5 5 0 .552.448 1 1 1 2.757 0 5 2.243 5 5v9.35c-.627-.222-1.298-.35-2-.35v-2c0-.334-.167-.646-.445-.832l-9-6c-.26-.173-.586-.214-.879-.114-.295.101-.525.334-.624.63-1.061 3.18-4.025 5.316-7.377 5.316h-14.675c-.552 0-1 .448-1 1v2c-.702 0-1.373.128-2 .35zm16 16c0 2.206-1.794 4-4 4s-4-1.794-4-4c0-.205.027-.405.058-.605.338.105.679.196 1.023.273.306 1.333 1.495 2.332 2.919 2.332s2.613-.999 2.919-2.332c.344-.077.685-.169 1.023-.273.031.2.058.4.058.605zm-.419-2.581c-2.312.771-4.85.771-7.162 0l-.154-.051.735-2.206c.431-1.293 1.637-2.162 3-2.162s2.569.869 3 2.163l.735 2.205zm-13.581 5.581c-2.206 0-4-1.794-4-4s1.794-4 4-4v7c0 .338.031.667.051 1zm2-1v-10h4.949c-.842.617-1.499 1.488-1.846 2.53l-1.051 3.154c-.104.312-.031.629.144.88-.117.468-.196.945-.196 1.436 0 3.309 2.691 6 6 6s6-2.691 6-6c0-.491-.079-.968-.195-1.437.175-.25.248-.568.144-.88l-1.051-3.153c-.347-1.042-1.004-1.913-1.846-2.53h2.624c3.78 0 7.167-2.161 8.786-5.49l7.538 5.025v10.465c0 8.271-6.729 15-15 15s-15-6.729-15-15zm15 17c1.74 0 3.418-.265 5-.753v.753c0 2.757-2.243 5-5 5s-5-2.243-5-5v-.753c1.582.488 3.26.753 5 .753zm22 12h-6v-2h-2v2h-28v-2h-2v2h-6v-2c0-3.066 2.084-5.698 5.069-6.4l10.047-2.364c.586 3.271 3.446 5.764 6.884 5.764s6.298-2.493 6.884-5.764l10.047 2.364c2.985.702 5.069 3.334 5.069 6.4z"></path><path d="m39 36c3.309 0 6-2.691 6-6 0-.491-.079-.968-.195-1.437.175-.25.248-.568.144-.88l-1.051-3.153c-.704-2.112-2.672-3.53-4.898-3.53s-4.194 1.418-4.897 3.53l-1.051 3.154c-.104.312-.031.629.144.88-.117.468-.196.945-.196 1.436 0 3.309 2.691 6 6 6zm0-2c-2.206 0-4-1.794-4-4 0-.205.027-.405.058-.605.338.105.679.196 1.023.273.306 1.333 1.495 2.332 2.919 2.332s2.613-.999 2.919-2.332c.344-.077.685-.169 1.023-.273.031.2.058.4.058.605 0 2.206-1.794 4-4 4zm-3-8.838c.431-1.293 1.637-2.162 3-2.162s2.569.869 3 2.163l.735 2.205-.154.051c-2.312.771-4.85.771-7.162 0l-.154-.051z"></path><path d="m32 39c.912 0 1.77-.355 2.414-1l.293-.293-1.414-1.414-.293.293c-.526.526-1.474.526-2 0l-.293-.293-1.414 1.414.293.293c.644.645 1.502 1 2.414 1z"></path><path d="m38.051 42.167.503-.335-1.109-1.664-.503.335c-2.936 1.958-6.946 1.958-9.883 0l-.503-.336-1.11 1.664.504.336c1.797 1.2 3.889 1.833 6.05 1.833s4.254-.634 6.051-1.833z"></path></g></g></svg>