<!-- icon666.com - MILLIONS OF FREE VECTOR ICONS --><svg viewBox="0 -56 512 512" xmlns="http://www.w3.org/2000/svg"><g fill="#00e9cc"><path d="m360.703125 344.671875v47.59375h111.21875v-47.59375zm0 0"></path><path d="m416.3125 307.601562c12.984375 0 23.546875-10.5625 23.546875-23.546874 0-12.984376-10.5625-23.546876-23.546875-23.546876s-23.546875 10.5625-23.546875 23.546876c0 12.984374 10.5625 23.546874 23.546875 23.546874zm0 0"></path><path d="m231.953125 224.4375h16.03125v15.03125h-16.03125zm0 0"></path><path d="m199.890625 224.4375h16.03125v15.03125h-16.03125zm0 0"></path><path d="m167.828125 224.4375h16.03125v15.03125h-16.03125zm0 0"></path><path d="m87.171875 127.75h-15.03125v-55.609375h55.609375v15.03125h-40.578125zm0 0"></path></g><path d="m55.109375 55.109375h313.109375v-15.03125h-328.140625v239.46875h264.015625v-15.03125h-248.984375zm0 0"></path><path d="m415.8125 72.140625v-72.140625h-415.8125v319.625h168.328125v29.449219l-32.0625 32.0625v18.644531h143.28125v-18.644531l-32.0625-32.0625v-29.449219h73.140625v80.15625h191.375v-327.640625zm81.15625 48.09375h-161.3125v-33.0625h161.3125zm-161.3125 55.109375h161.3125v25.046875h-161.3125zm0-15.03125v-25.046875h161.3125v25.046875zm-73.75 224.4375h-108l25.050781-25.046875h57.898438zm-29.453125-40.078125h-49.09375v-25.046875h49.09375zm-217.421875-40.078125v-289.5625h385.75v57.109375h-80.15625v232.453125zm320.625 80.15625v-169.328125h161.3125v169.328125zm0 0"></path></svg>