<!-- icon666.com - MILLIONS OF FREE VECTOR ICONS --><svg viewBox="0 -15 400.32 400" xmlns="http://www.w3.org/2000/svg"><path d="m390 225.359375h-379.679688v34.871094c0 13.371093 25.140626 24.21875 56.171876 24.21875h323.507812zm0 0" fill="#e2d574"></path><path d="m268.050781 360.332031h-135.78125l13.789063-11.210937c8.453125-6.882813 13.359375-17.203125 13.363281-28.101563v-36.570312h81.476563v36.570312c.003906 10.898438 4.910156 21.21875 13.363281 28.101563zm0 0" fill="#e48e66"></path><path d="m174.027344 225.359375h-163.707032v34.871094c0 13.375 10.84375 24.21875 24.21875 24.21875h139.488282zm0 0" fill="#cec06f"></path><path d="m390 34.210938v191.148437h-379.679688v-191.148437c-.003906-13.375 10.835938-24.21875 24.210938-24.21875h331.25c13.371094-.003907 24.214844 10.835937 24.21875 24.207031zm0 0" fill="#e48e66"></path><path d="m174.027344 9.992188h-139.488282c-13.371093-.003907-24.21875 10.835937-24.21875 24.207031v191.160156h163.707032zm0 0" fill="#d18162"></path><path d="m400.160156 223.628906v-189.417968c-.113281-18.886719-15.492187-34.1210942-34.378906-34.050782h-331.242188c-18.886718-.0703122-34.269531 15.164063-34.378906 34.050782v189.417968c0 .5625-.160156 1.140625-.160156 1.730469 0 .59375.160156 1.171875.160156 1.734375v33.136719c0 18.867187 15.511719 33.929687 34.378906 33.929687h114.621094v26.859375c.0625 7.851563-3.445312 15.304688-9.539062 20.253907l-10.902344 8.886718h-32.277344c-5.523437 0-10 4.476563-10 10 0 5.523438 4.476563 10 10 10h211.769532c5.523437 0 10-4.476562 10-10 0-5.523437-4.476563-10-10-10h-36.609376l-10.902343-8.878906c-6.089844-4.953125-9.601563-12.410156-9.539063-20.261719v-26.859375h114.621094c18.867188 0 34.378906-15.0625 34.378906-33.929687v-33.136719c0-.5625.160156-1.140625.160156-1.734375 0-.589844-.160156-1.167969-.160156-1.730469zm-365.621094-203.46875h331.242188c7.847656-.082031 14.28125 6.203125 14.378906 14.050782v180.949218h-360v-180.949218c.097656-7.847657 6.53125-14.132813 14.378906-14.050782zm206.851563 330h-82.460937c6.746093-8.199218 10.371093-18.523437 10.230468-29.140625v-26.859375h62v26.859375c-.140625 10.617188 3.484375 20.941407 10.230469 29.140625zm124.390625-76h-331.242188c-7.800781.140625-14.238281-6.070312-14.378906-13.875v-25.125h360v25.070313c-.109375 7.800781-6.523437 14.039062-14.324218 13.929687zm0 0" fill="#63316d"></path></svg>