<!-- icon666.com - MILLIONS OF FREE VECTOR ICONS --><svg id="Layer_1" enable-background="new 0 0 66 66" viewBox="0 0 66 66" xmlns="http://www.w3.org/2000/svg"><g><path d="m54.685 20.408c-6.146-4.405-20.536-8.398-27.877-10.209-6.218-1.534-13.464-2.916-19.464 5.769-1.94 2.807-3.263 6.128-4.455 9.264-1.084 2.856-2.765 5.286-1.346 8.642 1.287 3.042 4.152 4.893 6.329 5.908 7.955 3.715 3.056-.863 22.851 10.91 4.562 2.713 10.02 5.564 15.911 6.151 7.226.724 17.796-2.415 18.347-15.288.348-8.116-3.693-16.416-10.296-21.147zm-28.118-9.238c1.758.434 3.514.903 5.267 1.39-2.48 2.697-4.67 5.522-6.597 8.493-1.273-.816-2.734-1.499-4.34-2.039-.098-2.422-2.397-3.843-4.977-3.557-1.414.144-2.767.803-3.432 2.146-1.9-.104-3.316-.193-4.886-.203.182-.291.368-.58.564-.864 5.586-8.079 12.241-6.886 18.401-5.366zm-13.31 7.118c.407-1.134 1.583-1.716 2.77-1.837 1.192-.132 2.494.16 3.263 1.06l-.708.708c-.098.098-.098.256 0 .354.096.096.255.099.353 0l.646-.646c.244.436.372.934.331 1.402-.001.008-.001.016-.002.023-.002.043-.018.078-.022.12-.04.011-.082.016-.113.047l-.38.381-.722-.722.019-.019c.232-.232-.119-.588-.354-.354l-.019.019-.458-.458c-.098-.098-.256-.098-.354 0s-.098.256 0 .353l.458.458-.771.771-.771-.771.623-.624c.098-.098.098-.256 0-.353-.098-.098-.256-.098-.354 0l-1.772 1.772-.629-.63c-.097-.097-.255-.099-.354 0-.098.098-.098.256 0 .354l.63.63-.235.235c-.628-.309-1.104-.729-1.199-1.293-.053-.313-.014-.644.124-.98zm1.665 2.393.182.182c-.093-.029-.187-.054-.277-.087zm1.032.394c-.011-.041-.016-.085-.049-.118l-.63-.631.795-.795.771.771-.557.557c-.074.074-.073.176-.036.267-.098-.015-.195-.032-.294-.051zm1.24-.419.483.483c.047.046.107.068.168.07-.26.025-.414.056-1.178-.027zm.837.13-.483-.483.771-.771.722.722-.752.752c-.04.04-.052.092-.059.143-.118.028-.239.046-.364.059.233-.01.31-.277.165-.422zm-14.207 4.801c.989-2.605 1.941-4.991 3.181-7.183 1.747-.02 3.359.085 5.148.182-.043.286-.053.572-.004.851.453 2.726 6.353 3.887 8.184 1.557.226-.28.379-.601.473-.951 1.441.502 2.755 1.122 3.9 1.857-2.672 4.273-4.821 8.846-6.452 13.814-2.791-.905-5.813-1.592-8.928-1.779-1.7-.1-3.3-.071-4.745-.642-1.308-.516-2.563-1.786-2.435-3.217 0-.004-.001-.007-.001-.011.31-1.471 1.067-2.871 1.679-4.478zm42.909 30.261c-5.696-.568-11.031-3.36-15.499-6.017-19.824-11.797-15.153-7.32-22.938-10.956-2.019-.942-4.669-2.642-5.832-5.392-.087-.204-.143-.4-.203-.598.559.595 1.255 1.062 1.953 1.337 1.629.643 3.397.611 5.053.71 12.928.775 23.852 9.824 35.235 15.102 2.286 1.062 5.324 2.327 8.552 2.704 2.217.256 4.469.078 6.54-.672-3.137 2.821-7.908 4.275-12.861 3.782zm-.275-6.637-1.177-1.177 1.013-1.013 1.354 1.354-1.114 1.113c-.098.098-.098.256 0 .354.049.049.112.073.177.073s.128-.024.177-.073l1.114-1.113 1.457 1.457c-.036.09-.036.191.037.264.104.104.172.074.264.037l.609.609c.097.097.255.098.354 0 .098-.098.098-.256 0-.354l-.583-.583 2.379-2.379 1.999 2-.848.848c-.098.098-.098.256 0 .354.097.097.255.098.354 0l.848-.848.57.57c.097.097.255.098.354 0 .098-.098.098-.256 0-.354l-.57-.57 1.507-1.507 1.279 1.279-.317.317c-.098.098-.098.256 0 .354.097.097.255.098.354 0l.317-.317 1.13 1.13c-1.857.724-4.034.979-6.325.709-3.085-.359-6.027-1.587-8.246-2.617-.165-.077-.328-.163-.494-.241l.499-.498 1.177 1.177c.097.097.255.098.354 0 .095-.099.095-.258-.003-.355zm11.88-7.249c.04-.04.053-.093.06-.145l1.397 1.397-1.658 1.658-1.355-1.354zm.444 4.262 1.279 1.279-1.696 1.696-1.279-1.279zm-2.05 1.342-.292-.292 1.696-1.696.292.292zm2.403-1.695 1.658-1.658 1.279 1.279-1.658 1.658zm-.353-.354-.292-.292 1.658-1.658.292.292zm-.999-.291-1.696 1.696-1.355-1.354 1.696-1.696zm-2.049 2.049-.165.165c-.098.098-.098.256 0 .354.097.097.255.098.354 0l.165-.165.292.292-1.507 1.507-2-1.999 1.507-1.507zm-3.215-.202-1.43-1.43 1.507-1.506 1.43 1.43zm-.353.354-2.379 2.379-1.431-1.43 2.379-2.379zm9.199 2.657c-.581.328-.523.35-1.379.736l-1.268-1.268 1.696-1.696 1.151 1.151c.097.097.255.098.354 0 .098-.098.098-.256 0-.354l-1.151-1.151 1.833-1.833s.001 0 .002-.001 0-.001 0-.001l.987-.987c-.425 2.066-1.172 3.902-2.225 5.404zm2.616-8.573c-.039.909-.137 1.785-.284 2.628-.096-.056-.214-.058-.296.024l-.975.975-1.279-1.279 1.523-1.523c.098-.098.098-.256 0-.354s-.256-.098-.354 0l-1.523 1.523-.292-.292 1.838-1.838c.048-.048.072-.111.072-.175l.9.9c.097.097.255.098.354 0 .098-.098.098-.256 0-.354l-2.671-2.671 1.468-1.468.896.896c.097.097.255.098.354 0 .098-.098.098-.256 0-.354l-.896-.896.053-.053c.098-.098.098-.256 0-.354s-.256-.098-.354 0l-.053.053-.544-.544c-.098-.098-.256-.098-.354 0s-.098.256 0 .354l.544.544-1.494 1.494c-.09-.037-.192-.037-.265.037-.073.073-.073.175-.037.265l-.873.874c-.098.098-.098.256 0 .354.097.097.255.098.354 0l.848-.848 1.519 1.519c-.063.001-.126.024-.175.072l-1.838 1.838-1.569-1.57c-.098-.098-.256-.098-.354 0-.07.07-.072.166-.041.254-.072-.007-.145.009-.2.064l-1.556 1.556-1.418-1.417c-.098-.098-.256-.098-.354 0s-.098.256 0 .354l1.418 1.417-1.696 1.696-1.43-1.43.124-.125c.098-.098.098-.256 0-.354s-.256-.098-.354 0l-.125.125-.317-.317c-.098-.098-.256-.098-.354 0s-.098.256 0 .354l.317.317-1.507 1.506-.431-.43c-.098-.098-.256-.098-.354 0s-.098.256 0 .354l.43.431-2.379 2.379-1.354-1.354 1.75-1.749c.098-.098.098-.256 0-.354s-.256-.098-.354 0l-1.75 1.749-.317-.317c-.098-.098-.256-.098-.353 0-.098.098-.098.256 0 .354l.317.317-1.013 1.013-1.379-1.379c-.098-.098-.256-.098-.354 0s-.098.256 0 .354l1.379 1.379-.62.62c-8.608-4.15-15.867-9.528-24.752-12.621 2.887-8.8 7.362-16.374 13.68-23.15.007-.007.009-.017.015-.024 10.1 2.862 16.93 5.298 21.206 8.361 3.919 2.808 6.893 6.927 8.516 11.503l-.846.846c-.046.009-.094.018-.13.054s-.044.084-.054.13l-.174.174c-.098.098-.098.256 0 .354.097.097.255.098.354 0l.089-.089.557.557-.848.848c-.098.098-.098.256 0 .354.097.097.255.098.354 0l.848-.848.727.727c.398 1.869.571 3.78.49 5.68zm-.92-7.409-.294.294-.557-.557.585-.585c.092.281.184.563.266.848zm.21.798-.151-.151.09-.09c.022.08.041.161.061.241z"></path><path d="m40.083 24.042 1.597-1.597c.098-.098.098-.256 0-.354s-.256-.098-.354 0l-1.597 1.597-1.061-1.06.718-.718.472.472c.097.097.255.098.354 0 .098-.098.098-.256 0-.354l-.472-.472.949-.949c.098-.098.098-.256 0-.354s-.256-.098-.354 0l-.949.949-1.746-1.746.456-.456c.098-.098.098-.256 0-.353-.098-.098-.256-.098-.354 0l-.456.456-.637-.637c-.098-.098-.256-.098-.354 0s-.098.256 0 .354l.637.637-.718.718-.166-.166c-.098-.098-.256-.098-.354 0s-.098.256 0 .354l.166.166-.76.76-.937-.937c-.098-.098-.256-.098-.354 0s-.098.256 0 .353l.937.937-1.275 1.275-.932-.932.724-.724c.098-.098.098-.256 0-.353-.098-.098-.256-.098-.354 0l-.724.724-.337-.337c-.098-.098-.256-.098-.354 0s-.098.256 0 .354l.337.337-1.537 1.537c-.098.098-.098.256 0 .354.097.097.255.098.354 0l1.537-1.537.932.932-1.966 1.965c-.098.098-.098.256 0 .353.097.097.255.098.354 0l1.966-1.965.675.675-1.365 1.365c-.098.098-.098.256 0 .354.097.097.255.098.354 0l1.365-1.365.738.738c-.048.094-.05.206.029.284.107.107.19.077.284.029l.829.829c.097.097.255.098.354 0 .098-.098.098-.256 0-.354l-.809-.809 1.275-1.275 1.061 1.06-1.28 1.28c-.098.098-.098.256 0 .354.097.097.255.098.354 0l1.28-1.28.383.383c.097.097.255.098.353 0s.098-.256 0-.353l-.383-.383.76-.76 1.685 1.685c.097.097.255.098.354 0 .098-.098.098-.256 0-.354zm-2.796-4.231 1.746 1.746-.718.718-1.746-1.746zm-1.072 1.071 1.746 1.746-.76.76-.718-.718.447-.447c.098-.098.098-.256 0-.354s-.256-.098-.354 0l-.447.447-.675-.675zm-2.389 2.389 1.275-1.275.675.675-1.275 1.275zm1.746 1.746-.717-.717 1.275-1.275.718.718zm3.043-.215-1.061-1.061.76-.76 1.061 1.06z"></path></g></svg>